0
SECTION
2
HEADER
9
$INSUNITS
70
4
9
$ACADVER
1
AC1014
9
$HANDSEED
5
FFFF
0
ENDSEC
0
SECTION
2
TABLES
0
TABLE
2
VPORT
5
8
100
AcDbSymbolTable
0
ENDTAB
0
TABLE
2
LTYPE
5
5
100
AcDbSymbolTable
0
LTYPE
5
14
100
AcDbSymbolTableRecord
100
AcDbLinetypeTableRecord
2
BYBLOCK
70
0
0
LTYPE
5
15
100
AcDbSymbolTableRecord
100
AcDbLinetypeTableRecord
2
BYLAYER
70
0
0
ENDTAB
0
TABLE
2
LAYER
5
2
100
AcDbSymbolTable
70
2
0
LAYER
5
50
100
AcDbSymbolTableRecord
100
AcDbLayerTableRecord
2
0
70
0
6
CONTINUOUS
0
ENDTAB
0
TABLE
2
STYLE
5
3
100
AcDbSymbolTable
70
1
0
STYLE
5
11
100
AcDbSymbolTableRecord
100
AcDbTextStyleTableRecord
2
STANDARD
70
0
0
ENDTAB
0
TABLE
2
VIEW
5
6
100
AcDbSymbolTable
70
0
0
ENDTAB
0
TABLE
2
UCS
5
7
100
AcDbSymbolTable
70
0
0
ENDTAB
0
TABLE
2
APPID
5
9
100
AcDbSymbolTable
70
2
0
APPID
5
12
100
AcDbSymbolTableRecord
100
AcDbRegAppTableRecord
2
ACAD
70
0
0
ENDTAB
0
TABLE
2
DIMSTYLE
5
A
100
AcDbSymbolTable
70
1
0
ENDTAB
0
TABLE
2
BLOCK_RECORD
5
1
100
AcDbSymbolTable
70
1
0
BLOCK_RECORD
5
1F
100
AcDbSymbolTableRecord
100
AcDbBlockTableRecord
2
*MODEL_SPACE
0
BLOCK_RECORD
5
1B
100
AcDbSymbolTableRecord
100
AcDbBlockTableRecord
2
*PAPER_SPACE
0
ENDTAB
0
ENDSEC
0
SECTION
2
BLOCKS
0
BLOCK
5
20
100
AcDbEntity
100
AcDbBlockBegin
2
*MODEL_SPACE
0
ENDBLK
5
21
100
AcDbEntity
100
AcDbBlockEnd
0
BLOCK
5
1C
100
AcDbEntity
100
AcDbBlockBegin
2
*PAPER_SPACE
0
ENDBLK
5
1D
100
AcDbEntity
100
AcDbBlockEnd
0
ENDSEC
0
SECTION
2
ENTITIES
0
LWPOLYLINE
5
100
100
AcDbEntity
8
0
100
AcDbPolyline
90
4
70
1
43
0.0
10
71.870445571121095
20
-31.4149283455016
10
71.092796917420699
20
-31.697969308165877
10
69.725058364261287
20
-27.940138517643007
10
70.50270701796174
20
-27.657097554978854
0
SPLINE
5
101
100
AcDbEntity
8
0
100
AcDbSpline
70
0
71
3
72
25
73
21
74
0
42
0.000000001
43
0.0000000001
44
0.0000000001
40
0
40
0
40
0
40
0
40
0.017432027316797469
40
0.034891930242583816
40
0.050037671406997643
40
0.067133699350083648
40
0.075027820215302965
40
0.08262981923992424
40
0.091747515917148179
40
0.10124835395229054
40
0.10961219961736245
40
0.11953030484964854
40
0.12916171566409834
40
0.14016290635967935
40
0.15750450320389281
40
0.17420095815310882
40
0.19070562545823772
40
0.20452092574048081
40
0.21541465069731178
40
0.22281621145340935
40
0.22281621145340935
40
0.22281621145340935
40
0.22281621145340935
10
74.65389496697361
20
-27.629806010216722
30
0
10
74.672523690439036
20
-27.684830397279327
30
0
10
74.709810926619411
20
-27.794967161072684
30
0
10
74.749071213423775
20
-27.957867430359048
30
0
10
74.757471833457799
20
-28.123890766241459
30
0
10
74.753894357925802
20
-28.257587370133834
30
0
10
74.745054155825898
20
-28.366084493659933
30
0
10
74.727247553657719
20
-28.44626982405055
30
0
10
74.705016246878515
20
-28.53104291033538
30
0
10
74.66770711159144
20
-28.613060083793876
30
0
10
74.635063185941434
20
-28.699944553175225
30
0
10
74.586755157467024
20
-28.779751238432574
30
0
10
74.534489689033052
20
-28.867427447749733
30
0
10
74.44944772374923
20
-28.961723204430633
30
0
10
74.349873875251703
20
-29.074361039143895
30
0
10
74.217750689924742
20
-29.179780702339684
30
0
10
74.089875760954214
20
-29.270592743824253
30
0
10
73.970589033874916
20
-29.338825774441464
30
0
10
73.877469002020518
20
-29.391942922067514
30
0
10
73.821106620500871
20
-29.415359363253053
30
0
10
73.798304593917535
20
-29.424832744256548
30
0
0
LWPOLYLINE
5
102
100
AcDbEntity
8
0
100
AcDbPolyline
90
6
70
1
43
0.0
10
70.440264264028883
20
-31.935471770887265
10
68.303943368579908
20
-32.71302898767162
10
66.936204815420552
20
-28.955198197148817
10
67.722804534328574
20
-28.668899313184049
10
68.868267632171424
20
-31.816033309326027
10
70.21798880871242
20
-31.324774976506337
0
LINE
5
103
100
AcDbEntity
8
0
100
AcDbLine
10
71.459178063189043
20
-27.308970564578622
30
0
11
72.826916616348399
21
-31.066801355101369
31
0
0
LINE
5
104
100
AcDbEntity
8
0
100
AcDbLine
10
85.296322930132817
20
-18.634876362163535
30
0
11
85.215010112192857
21
-18.523448531315108
31
0
0
SPLINE
5
105
100
AcDbEntity
8
0
100
AcDbSpline
70
0
71
3
72
73
73
69
74
0
42
0.000000001
43
0.0000000001
44
0.0000000001
40
0
40
0
40
0
40
0
40
0.024008078743093995
40
0.036011623143176817
40
0.048025012243963008
40
0.060033862373038156
40
0.072049568429949862
40
0.084044555663205137
40
0.096059306809448797
40
0.12010243247274743
40
0.14410725711783673
40
0.16811988178719245
40
0.19211700352456773
40
0.20412986124649937
40
0.21613880656002121
40
0.22214457096041107
40
0.22813300047445192
40
0.2341544647551782
40
0.24018157611900695
40
0.24617499791165343
40
0.25217059996969909
40
0.25819491403963024
40
0.26420867288552602
40
0.27618336448693992
40
0.28820795742554156
40
0.31221475031021667
40
0.33621168488776648
40
0.34821641434642037
40
0.36021976615837509
40
0.3722418131042064
40
0.38424070461516463
40
0.39625233307994556
40
0.40826017971872613
40
0.42026607668762028
40
0.43227902043681715
40
0.43828739727683474
40
0.44428560849942983
40
0.45029265828303522
40
0.4563014101497217
40
0.46229920992953438
40
0.468301890449352
40
0.4803137003183674
40
0.4923227712995904
40
0.50433083946264756
40
0.51634149476675795
40
0.5283501771652519
40
0.54035701373217238
40
0.55237058719135734
40
0.55837976251658139
40
0.56438111046194139
40
0.57637418808747232
40
0.58236902284931225
40
0.58837252207130175
40
0.59442477644304426
40
0.60034797416233099
40
0.60642662552509063
40
0.61242209349890608
40
0.62440335635891808
40
0.6363999070776708
40
0.64840844979479151
40
0.67243490852522159
40
0.69644559240067916
40
0.70845527094251015
40
0.72046350789227376
40
0.73247225371515778
40
0.74448842734245424
40
0.75648658028849769
40
0.76849784351992267
40
0.76849784351992267
40
0.76849784351992267
40
0.76849784351992267
10
77.041023802446304
20
-25.518753077139205
30
0
10
76.96116918921021
20
-25.51307008961578
30
0
10
76.841388915708336
20
-25.504545725496065
30
0
10
76.681123443994338
20
-25.505931284560365
30
0
10
76.561540952261524
20
-25.518094600284883
30
0
10
76.442620953923978
20
-25.534995344248955
30
0
10
76.324132145731781
20
-25.554756126333238
30
0
10
76.207542443443515
20
-25.584269168129111
30
0
10
76.056074428545728
20
-25.636563737863113
30
0
10
75.868342300004088
20
-25.706193764490056
30
0
10
75.648048974347432
20
-25.802548984160964
30
0
10
75.439558698103781
20
-25.92324586205768
30
0
10
75.284792921835248
20
-26.051561779917485
30
0
10
75.17677012548377
20
-26.170684087222497
30
0
10
75.125703726864174
20
-26.257118287148174
30
0
10
75.079952194896322
20
-26.322834761852086
30
0
10
75.052819018398949
20
-26.37663245565961
30
0
10
75.031064540786986
20
-26.432700319064011
30
0
10
75.010124299800395
20
-26.489062699433177
30
0
10
74.99264328257064
20
-26.546666106135916
30
0
10
74.983412775152019
20
-26.606109737537331
30
0
10
74.975904463319054
20
-26.66571670337558
30
0
10
74.964965496656589
20
-26.74506971064973
30
0
10
74.96898660616705
20
-26.845998061363243
30
0
10
75.005194040132579
20
-27.002161704623656
30
0
10
75.066514102411347
20
-27.193019826035659
30
0
10
75.157507328255122
20
-27.372876455997471
30
0
10
75.257026793424757
20
-27.499358115411297
30
0
10
75.348398869897579
20
-27.577643053347455
30
0
10
75.441099474766787
20
-27.654624663757374
30
0
10
75.548236788891131
20
-27.710062494895169
30
0
10
75.656717831746334
20
-27.761567423062221
30
0
10
75.770314253648635
20
-27.80086539061875
30
0
10
75.884273005401624
20
-27.839172473531409
30
0
10
75.982628698328057
20
-27.858610394638923
30
0
10
76.05983877723925
20
-27.879892340161625
30
0
10
76.118790910155937
20
-27.891560698748439
30
0
10
76.17824463791932
20
-27.900134568730639
30
0
10
76.236961953768031
20
-27.912744047274323
30
0
10
76.296184706898572
20
-27.922955081889363
30
0
10
76.376049288504603
20
-27.928950295413539
30
0
10
76.475655217201478
20
-27.938706141207707
30
0
10
76.594649018273856
20
-27.955074718137816
30
0
10
76.714113763654069
20
-27.967600511712472
30
0
10
76.832791632776463
20
-27.986101362691112
30
0
10
76.951294398091392
20
-28.005752270985305
30
0
10
77.067507919926058
20
-28.037610324497191
30
0
10
77.159215010062795
20
-28.078432178051198
30
0
10
77.228766349799145
20
-28.118763005370361
30
0
10
77.287997469701125
20
-28.173387004044386
30
0
10
77.332179427227047
20
-28.241567437851536
30
0
10
77.361706167291032
20
-28.316219981343423
30
0
10
77.373793856146904
20
-28.375221096435386
30
0
10
77.391250216495649
20
-28.432920276880338
30
0
10
77.388503483654176
20
-28.494388456162518
30
0
10
77.368360924253125
20
-28.55112309242238
30
0
10
77.338513631255182
20
-28.625831153114021
30
0
10
77.271148591335049
20
-28.703275348531683
30
0
10
77.170723430484315
20
-28.7697361229508
30
0
10
77.026325453690973
20
-28.839507734815939
30
0
10
76.838224198462242
20
-28.908580520111595
30
0
10
76.646045082681965
20
-28.965671635145263
30
0
10
76.488350836568245
20
-28.994664422421891
30
0
10
76.368477775909398
20
-29.004200316109809
30
0
10
76.248510559995253
20
-29.007854860616806
30
0
10
76.128323586787346
20
-29.014975466836486
30
0
10
76.008754584272921
20
-29.000651356717171
30
0
10
75.929374205673014
20
-28.990824486983637
30
0
10
75.889662343638292
20
-28.985908369147282
30
0
0
LINE
5
106
100
AcDbEntity
8
0
100
AcDbLine
10
74.65389496697361
20
-27.629806010216722
30
0
11
74.64398836876353
21
-27.602587855330857
31
0
0
LINE
5
107
100
AcDbEntity
8
0
100
AcDbLine
10
73.208379668802095
20
-29.639547857450292
30
0
11
73.798304593917535
21
-29.424832744256548
31
0
0
LWPOLYLINE
5
108
100
AcDbEntity
8
0
100
AcDbPolyline
90
9
70
1
43
0.0
10
79.81660452188359
20
-28.522763010676023
10
79.329295998110993
20
-27.183893845303089
10
77.203445253327871
20
-25.231134534540075
10
78.052801884942326
20
-24.921994002355817
10
79.47107933589578
20
-26.328201455299638
10
79.653650168598659
20
-24.339332877528822
10
80.503006800213072
20
-24.030192345344588
10
80.129720139929944
20
-26.892563282892901
10
80.617028663702413
20
-28.231432448265878
0
LINE
5
109
100
AcDbEntity
8
0
100
AcDbLine
10
75.889662343638292
20
-28.985908369147282
30
0
11
76.011767440730836
21
-29.665501112449249
31
0
0
ARC
5
110
100
AcDbEntity
8
0
100
AcDbCircle
10
84.25438991694071
20
-18.861305880024158
30
0
40
0.099975000000035757
210
0
220
-0
230
1
100
AcDbArc
50
36.119547885807435
51
126.11954788583469
0
LINE
5
111
100
AcDbEntity
8
0
100
AcDbLine
10
72.978005715512211
20
-29.00660062275562
30
0
11
72.472944629207916
21
-27.618956692689473
31
0
0
LINE
5
112
100
AcDbEntity
8
0
100
AcDbLine
10
72.844653772410993
20
-26.804698646122972
30
0
11
71.459178063189043
21
-27.308970564578622
31
0
0
SPLINE
5
113
100
AcDbEntity
8
0
100
AcDbSpline
70
0
71
3
72
70
73
66
74
0
42
0.000000001
43
0.0000000001
44
0.0000000001
40
0
40
0
40
0
40
0
40
0.02406104632740777
40
0.048125142768969231
40
0.096225069428057891
40
0.12029291688542867
40
0.1443606744743037
40
0.16843526734695857
40
0.1924922180969027
40
0.20453030175255413
40
0.216574292145778
40
0.22860590061161901
40
0.24064765376381653
40
0.2466648373662996
40
0.25266823562811724
40
0.25870220257102367
40
0.26472505880985919
40
0.27674622081110345
40
0.2887814062727363
40
0.30080773318068349
40
0.31286893266029797
40
0.33692066884176658
40
0.34896450048686994
40
0.36098977684807138
40
0.37302844235675831
40
0.38505483526007539
40
0.39708646744392267
40
0.40912036915198169
40
0.41514188541594749
40
0.42114487307536447
40
0.42717100754016718
40
0.43319646983172116
40
0.43920880589884193
40
0.44521988404061746
40
0.45124145294972501
40
0.4572614419983409
40
0.46327746416187388
40
0.46928858772704829
40
0.48133077691535248
40
0.49336379233880195
40
0.50539838708435925
40
0.51743290829082778
40
0.52946630604940947
40
0.55352333371755846
40
0.56553856238310751
40
0.57156953418623835
40
0.57759482931815365
40
0.58960615615725998
40
0.60159070236391077
40
0.60763814306629149
40
0.61370358384516099
40
0.61965569579086044
40
0.62572489952050214
40
0.63773495787719381
40
0.64976654258855659
40
0.66180314425807185
40
0.67383369751926381
40
0.68587087077875075
40
0.69790739084786246
40
0.70993165525892499
40
0.72197394013917826
40
0.73400253351129818
40
0.74603930605502722
40
0.75806149462552075
40
0.77009766087502984
40
0.77009766087502984
40
0.77009766087502984
40
0.77009766087502984
10
76.011767440730836
20
-29.66550111244926
30
0
10
76.091920596434448
20
-29.670211765557674
30
0
10
76.252237068508478
20
-29.679633668923504
30
0
10
76.572816534130737
20
-29.65273942557884
30
0
10
76.886732510512573
20
-29.580935008640843
30
0
10
77.192497984730167
20
-29.483541468149834
30
0
10
77.416790206256977
20
-29.396086167302204
30
0
10
77.63334743542876
20
-29.288373715724305
30
0
10
77.791231238865294
20
-29.163210949989235
30
0
10
77.912439326410833
20
-29.058137792689848
30
0
10
77.994304280192196
20
-28.969083818093022
30
0
10
78.058811616306954
20
-28.866994571679463
30
0
10
78.107842480233444
20
-28.779606001382724
30
0
10
78.144235765139243
20
-28.707926024840241
30
0
10
78.162320428159333
20
-28.650300349940974
30
0
10
78.175739919308839
20
-28.591635712673771
30
0
10
78.195508007929206
20
-28.513819448746908
30
0
10
78.211305136301064
20
-28.414612342802613
30
0
10
78.214839418717744
20
-28.293631602553916
30
0
10
78.191663329406992
20
-28.17484354068722
30
0
10
78.148803982043262
20
-28.020356698567142
30
0
10
78.093045235615335
20
-27.868815153079709
30
0
10
78.011553187530438
20
-27.729869515901719
30
0
10
77.9345702180795
20
-27.637134765115103
30
0
10
77.85300541894685
20
-27.548113724916341
30
0
10
77.754710021373441
20
-27.477720939900877
30
0
10
77.649928169521743
20
-27.41787097673744
30
0
10
77.555539652820769
20
-27.383337162002196
30
0
10
77.482428309915207
20
-27.350248887507949
30
0
10
77.424849180479967
20
-27.332285554480947
30
0
10
77.366110321116892
20
-27.319124823093567
30
0
10
77.308220000371108
20
-27.302538607394894
30
0
10
77.250247862690287
20
-27.286284744805243
30
0
10
77.190985506932677
20
-27.275680871463695
30
0
10
77.131490856242678
20
-27.266567456613714
30
0
10
77.072802108042481
20
-27.253073031451539
30
0
10
77.014289749754028
20
-27.239012288783812
30
0
10
76.934933775120186
20
-27.226731336955158
30
0
10
76.835127611457381
20
-27.216788639471442
30
0
10
76.715985475473559
20
-27.199485803214166
30
0
10
76.596542247635398
20
-27.184918360899054
30
0
10
76.477068446716004
20
-27.170095578452298
30
0
10
76.319121600081687
20
-27.142470629343411
30
0
10
76.160872578674287
20
-27.112848201262608
30
0
10
76.030091827786492
20
-27.059161230704852
30
0
10
75.962083713684962
20
-27.016511185082756
30
0
10
75.896666037595153
20
-26.969421399341961
30
0
10
75.836292867017718
20
-26.887288907470321
30
0
10
75.795430519839272
20
-26.79460738218507
30
0
10
75.781808243194121
20
-26.715288542918117
30
0
10
75.775811097897616
20
-26.655005267116245
30
0
10
75.788205183809168
20
-26.594874864028419
30
0
10
75.824764907819244
20
-26.523474169633296
30
0
10
75.876668380276044
20
-26.435910220484068
30
0
10
75.97428650296753
20
-26.362227550096193
30
0
10
76.07957181042454
20
-26.304212233308718
30
0
10
76.19034436837434
20
-26.256594642648402
30
0
10
76.303141719996319
20
-26.214853250382735
30
0
10
76.41731586387445
20
-26.176026463692004
30
0
10
76.535853072724422
20
-26.154228999997329
30
0
10
76.655425833719477
20
-26.138144007215093
30
0
10
76.776013891956666
20
-26.143306520627387
30
0
10
76.896086675356202
20
-26.146903650382406
30
0
10
77.016469075584752
20
-26.156321030691441
30
0
10
77.094287910182643
20
-26.176278290669799
30
0
10
77.133219933488917
20
-26.186262718149624
30
0
0
LINE
5
114
100
AcDbEntity
8
0
100
AcDbLine
10
73.859166385433753
20
-27.87551330009698
30
0
11
73.875001780374831
21
-27.919020690125748
31
0
0
LINE
5
115
100
AcDbEntity
8
0
100
AcDbLine
10
73.622467400454795
20
-30.777244549839487
30
0
11
73.208379668802095
21
-29.639547857450292
31
0
0
LINE
5
116
100
AcDbEntity
8
0
100
AcDbLine
10
85.215010112192857
20
-18.523448531315108
30
0
11
84.470049560042483
21
-18.987236288155074
31
0
0
SPLINE
5
117
100
AcDbEntity
8
0
100
AcDbSpline
70
0
71
3
72
26
73
22
74
0
42
0.000000001
43
0.0000000001
44
0.0000000001
40
0
40
0
40
0
40
0
40
0.0052428797664669938
40
0.01049616829442117
40
0.021001935849864727
40
0.031498651019529762
40
0.041999370474775109
40
0.052495335485364114
40
0.062985179565194241
40
0.073489330485720802
40
0.083975493682255056
40
0.094469193598669177
40
0.10494582431437591
40
0.11544301461317114
40
0.12068585785406202
40
0.12593764911025687
40
0.13118796627552037
40
0.13643205749076426
40
0.14692972966551515
40
0.15742990137993546
40
0.16792165875594064
40
0.16792165875594064
40
0.16792165875594064
40
0.16792165875594064
10
72.472944629207916
20
-27.618956692689473
30
0
10
72.484911131243024
20
-27.60612311471634
30
0
10
72.508867892574756
20
-27.580430480090797
30
0
10
72.568394500665548
20
-27.542671793436821
30
0
10
72.647325250795546
20
-27.504734205710033
30
0
10
72.74557387804137
20
-27.467415054383871
30
0
10
72.844479164794819
20
-27.432356347546381
30
0
10
72.944791139875335
20
-27.400879309163297
30
0
10
73.048095849765787
20
-27.381728314774783
30
0
10
73.151676133215688
20
-27.364249781265567
30
0
10
73.256918016993197
20
-27.361153195434117
30
0
10
73.361698499840401
20
-27.373400420327911
30
0
10
73.461306089276121
20
-27.408914228674384
30
0
10
73.53744453279046
20
-27.452080184077687
30
0
10
73.596389577816041
20
-27.490036740113272
30
0
10
73.635981449531073
20
-27.524585812996527
30
0
10
73.675211615393351
20
-27.559643681292446
30
0
10
73.718260615994538
20
-27.615112157933666
30
0
10
73.7676573249841
20
-27.687089960174397
30
0
10
73.824239239689575
20
-27.776192717404015
30
0
10
73.847527115065105
20
-27.842415287347777
30
0
10
73.859166385433753
20
-27.87551330009698
30
0
0
LINE
5
118
100
AcDbEntity
8
0
100
AcDbLine
10
77.133219933488917
20
-26.186262718149624
30
0
11
77.041023802446304
21
-25.518753077139205
31
0
0
LINE
5
119
100
AcDbEntity
8
0
100
AcDbLine
10
85.202865731480813
20
-26.325925340793642
30
0
11
83.23095406756542
21
-20.908142571027078
31
0
0
LINE
5
120
100
AcDbEntity
8
0
100
AcDbLine
10
84.513714498251289
20
-19.692878204867625
30
0
11
84.740468166526753
21
-19.527408056114609
31
0
0
SPLINE
5
121
100
AcDbEntity
8
0
100
AcDbSpline
70
0
71
3
72
35
73
31
74
0
42
0.000000001
43
0.0000000001
44
0.0000000001
40
0
40
0
40
0
40
0
40
0.004946495128661633
40
0.00989499471003219
40
0.019792772467937057
40
0.029667471205431239
40
0.039578774498016354
40
0.044521446214612861
40
0.049466608510814934
40
0.059369346246225772
40
0.069259418254779076
40
0.079155694796912521
40
0.089050357154740883
40
0.098951376724468479
40
0.10884038410334641
40
0.11874097461916992
40
0.13853001217597377
40
0.15832529903958048
40
0.17810828953673957
40
0.19789843599378162
40
0.2176878412431234
40
0.23747890894101209
40
0.24737559265391801
40
0.25727052908535869
40
0.2671666301239104
40
0.27706529522633427
40
0.28696475151918788
40
0.29685633789155075
40
0.30675143687499323
40
0.31664807648479748
40
0.31664807648479748
40
0.31664807648479748
40
0.31664807648479748
10
81.974880237469449
20
-20.973267902756959
30
0
10
81.964903236127142
20
-20.960071039823127
30
0
10
81.944945190493513
20
-20.93367196623209
30
0
10
81.918322736655739
20
-20.872859994740267
30
0
10
81.896227659891622
20
-20.793154510932041
30
0
10
81.891380911645484
20
-20.692692661017094
30
0
10
81.914306777288459
20
-20.612866816682196
30
0
10
81.931666870165358
20
-20.549187220856517
30
0
10
81.957098557418135
20
-20.48822167366945
30
0
10
81.985473342459713
20
-20.410670867224088
30
0
10
82.033185282859563
20
-20.323743255475101
30
0
10
82.081384384039154
20
-20.237306471628514
30
0
10
82.137879455228642
20
-20.155929532301428
30
0
10
82.192344650621891
20
-20.073338291623159
30
0
10
82.251178503002137
20
-19.993644409864086
30
0
10
82.336739692472975
20
-19.893166046272697
30
0
10
82.444522335764233
20
-19.76838087189843
30
0
10
82.576498340691856
20
-19.620639237182349
30
0
10
82.724706400022313
20
-19.488900685931117
30
0
10
82.882041237819124
20
-19.36885700370776
30
0
10
83.043004958772485
20
-19.253534476087069
30
0
10
83.184119498477685
20
-19.167905720705292
30
0
10
83.300340127901165
20
-19.105235680331116
30
0
10
83.391560802769817
20
-19.066577343598702
30
0
10
83.484625624747011
20
-19.032838783102957
30
0
10
83.578386853046425
20
-19.001308377631535
30
0
10
83.673036887162766
20
-18.971525808410053
30
0
10
83.77128216869643
20
-18.957857926627156
30
0
10
83.869673536098446
20
-18.946987604247319
30
0
10
83.935691990077117
20
-18.946340779342535
30
0
10
83.96870378656709
20
-18.946017341715109
30
0
0
SPLINE
5
122
100
AcDbEntity
8
0
100
AcDbSpline
70
0
71
3
72
11
73
7
74
0
42
0.000000001
43
0.0000000001
44
0.0000000001
40
0
40
0
40
0
40
0
40
0.0081861874909051006
40
0.016407569173898583
40
0.024628081743483021
40
0.032809870284760033
40
0.032809870284760033
40
0.032809870284760033
40
0.032809870284760033
10
81.974880237469449
20
-20.973267902756959
30
0
10
81.991630296565688
20
-20.995061843314286
30
0
10
82.025202426888072
20
-21.038743421297141
30
0
10
82.094310996120882
20
-21.084438714211213
30
0
10
82.167127368109902
20
-21.12400639393001
30
0
10
82.221500214228428
20
-21.132841933864231
30
0
10
82.248622453133976
20
-21.137249273962503
30
0
0
LINE
5
123
100
AcDbEntity
8
0
100
AcDbLine
10
84.617816878988648
20
-26.775264624298664
30
0
11
85.19902921369183
21
-26.563720634678344
31
0
0
LINE
5
124
100
AcDbEntity
8
0
100
AcDbLine
10
84.762294391490585
20
-19.38771690695393
30
0
11
84.627393435451154
21
-19.202854036724592
31
0
0
ARC
5
125
100
AcDbEntity
8
0
100
AcDbCircle
10
84.681535704428285
20
-19.446649369052334
30
0
40
0.099975000000054964
210
0
220
0
230
1
100
AcDbArc
50
-53.88045211410244
51
36.119547885859546
0
SPLINE
5
126
100
AcDbEntity
8
0
100
AcDbSpline
70
0
71
3
72
26
73
22
74
0
42
0.000000001
43
0.0000000001
44
0.0000000001
40
0
40
0
40
0
40
0
40
0.005242879766459891
40
0.010496168294417201
40
0.02100193584986082
40
0.031498651019521949
40
0.041999370474771328
40
0.052495335485361956
40
0.062985179565191243
40
0.073489330485718457
40
0.083975493682251087
40
0.094469193598666859
40
0.10494582431437109
40
0.11544301461316908
40
0.12068585785405229
40
0.12593764911025046
40
0.13118796627551077
40
0.13643205749075416
40
0.14692972966551451
40
0.15742990137993351
40
0.16792165875593673
40
0.16792165875593673
40
0.16792165875593673
40
0.16792165875593673
10
72.978005715512211
20
-29.00660062275562
30
0
10
72.995421852808832
20
-29.008739794607756
30
0
10
73.030288703899615
20
-29.013022385239402
30
0
10
73.100159547184532
20
-29.003684251202984
30
0
10
73.185009821044957
20
-28.982010421259403
30
0
10
73.284260924067169
20
-28.94744554949245
30
0
10
73.382562071746619
20
-28.91072698419088
30
0
10
73.479638553097459
20
-28.870360499844779
30
0
10
73.571084573963262
20
-28.818628025136679
30
0
10
73.661666659291939
20
-28.765437235795766
30
0
10
73.744277066547923
20
-28.700161179252419
30
0
10
73.816671208765413
20
-28.623427664567593
30
0
10
73.870147213167343
20
-28.532195984709887
30
0
10
73.900726103435659
20
-28.450188096329391
30
0
10
73.921482623700868
20
-28.383222542903567
30
0
10
73.929604041045295
20
-28.331307253023724
30
0
10
73.93712132824416
20
-28.279234703285823
30
0
10
73.934444326423346
20
-28.209072020790707
30
0
10
73.926017961400362
20
-28.122182232858421
30
0
10
73.912088074405361
20
-28.017555407111097
30
0
10
73.887360574487403
20
-27.951856817649308
30
0
10
73.875001780374831
20
-27.919020690125748
30
0
0
LINE
5
127
100
AcDbEntity
8
0
100
AcDbLine
10
87.551621376288935
20
-22.407606108698552
30
0
11
87.419903309152261
21
-21.670501919870535
31
0
0
LINE
5
128
100
AcDbEntity
8
0
100
AcDbLine
10
88.611294691832654
20
-25.094062277483218
30
0
11
88.378676083249772
21
-24.454947903056819
31
0
0
LINE
5
129
100
AcDbEntity
8
0
100
AcDbLine
10
72.826916616348399
20
-31.066801355101369
30
0
11
73.622467400454795
21
-30.777244549839487
31
0
0
LINE
5
130
100
AcDbEntity
8
0
100
AcDbLine
10
84.470049560042483
20
-18.987236288155074
30
0
11
84.335148604003066
21
-18.802373417925825
31
0
0
LINE
5
131
100
AcDbEntity
8
0
100
AcDbLine
10
83.755326593976605
20
-25.327020007296145
30
0
11
81.575584335192929
21
-23.631887873783498
31
0
0
SPLINE
5
132
100
AcDbEntity
8
0
100
AcDbSpline
70
0
71
3
72
43
73
39
74
0
42
0.000000001
43
0.0000000001
44
0.0000000001
40
0
40
0
40
0
40
0
40
0.013295364396138609
40
0.019955011492551397
40
0.026615945436523229
40
0.039913135695328492
40
0.053223442622899929
40
0.066530942703498214
40
0.079836200082843048
40
0.106447857296221
40
0.11975718950315334
40
0.13306798193400035
40
0.14637281569830662
40
0.15968096378849689
40
0.17298611781317116
40
0.18630086437286272
40
0.19295748822659303
40
0.19959628871557444
40
0.20625997517468653
40
0.21292178849248622
40
0.21956568848269425
40
0.2262220873640616
40
0.2328897226239392
40
0.23952198328830107
40
0.24618701064257942
40
0.25284123592759561
40
0.26614419943778
40
0.27944940770932925
40
0.29276000220957932
40
0.30606822663056604
40
0.31937885277031597
40
0.33268570221638549
40
0.34598927328562351
40
0.35929932461875441
40
0.37260808997414585
40
0.3859136684444941
40
0.39922596345488814
40
0.4258410430781539
40
0.4258410430781539
40
0.4258410430781539
40
0.4258410430781539
10
88.611294691832654
20
-25.094062277483218
30
0
10
88.582024830032395
20
-25.127485462953338
30
0
10
88.538093696502955
20
-25.177650319688478
30
0
10
88.469627920193943
20
-25.234262392610482
30
0
10
88.40211336877239
20
-25.291827080853196
30
0
10
88.311562563621749
20
-25.356138126948586
30
0
10
88.200450922506448
20
-25.429251663306836
30
0
10
88.08600965740375
20
-25.497507978888908
30
0
10
87.925606994957306
20
-25.57348183541805
30
0
10
87.762608038918046
20
-25.644486443695449
30
0
10
87.593084894005173
20
-25.69703863055711
30
0
10
87.466796375537825
20
-25.73948406689858
30
0
10
87.336031032107996
20
-25.765502119457992
30
0
10
87.204338894008202
20
-25.784852837246518
30
0
10
87.071415140955708
20
-25.793870680017847
30
0
10
86.96055511952909
20
-25.796157241758873
30
0
10
86.871872256531049
20
-25.80041101323301
30
0
10
86.805377216128335
20
-25.795370320685734
30
0
10
86.739595076931863
20
-25.785276273829332
30
0
10
86.673406778918121
20
-25.778139204547927
30
0
10
86.607602603673683
20
-25.767865767696222
30
0
10
86.542900293453684
20
-25.752000447035254
30
0
10
86.477069856185764
20
-25.742102045791672
30
0
10
86.412674156092095
20
-25.724334222943639
30
0
10
86.351621661973326
20
-25.697767555418736
30
0
10
86.267865087567543
20
-25.668342032451456
30
0
10
86.166369622863428
20
-25.62348948142775
30
0
10
86.047140721084361
20
-25.563987965215702
30
0
10
85.936381421981423
20
-25.489670619938334
30
0
10
85.831530572623819
20
-25.40766196043835
30
0
10
85.730551328624387
20
-25.320774432478217
30
0
10
85.637188534489496
20
-25.225872837806431
30
0
10
85.54791745338153
20
-25.126912771897363
30
0
10
85.471593933528965
20
-25.017668679426031
30
0
10
85.397000856550065
20
-24.907532223237542
30
0
10
85.326040384110939
20
-24.794770530780145
30
0
10
85.247546581410063
20
-24.635281663939207
30
0
10
85.202047912437564
20
-24.510094619431118
30
0
10
85.171719078935055
20
-24.426646529293606
30
0
0
SPLINE
5
133
100
AcDbEntity
8
0
100
AcDbSpline
70
0
71
3
72
19
73
15
74
0
42
0.000000001
43
0.0000000001
44
0.0000000001
40
0
40
0
40
0
40
0
40
0.0045361065720416005
40
0.0090607728553392559
40
0.013632258717564476
40
0.018188797997088658
40
0.027241513845684837
40
0.036322665288827237
40
0.045399412023930559
40
0.049933535740701251
40
0.054485844849245894
40
0.058981511165563119
40
0.063565814438524798
40
0.072940404202209624
40
0.072940404202209624
40
0.072940404202209624
40
0.072940404202209624
10
82.730109528297135
20
-21.657865924762241
30
0
10
82.723527047367611
20
-21.64419560982255
30
0
10
82.710378686856274
20
-21.616889457164461
30
0
10
82.681213595034279
20
-21.581613347896468
30
0
10
82.649131956415104
20
-21.549396789367226
30
0
10
82.607016006704953
20
-21.505825678007852
30
0
10
82.552027342135858
20
-21.453600879601744
30
0
10
82.477617219723527
20
-21.401450981548322
30
0
10
82.415150326057585
20
-21.358836940436081
30
0
10
82.364693113165899
20
-21.325418837934521
30
0
10
82.326240420613857
20
-21.301328238314426
30
0
10
82.293805063869314
20
-21.268682959048473
30
0
10
82.263949581814273
20
-21.214046510010228
30
0
10
82.25478036555802
20
-21.168103758442722
30
0
10
82.248622453133962
20
-21.137249273962503
30
0
0
LINE
5
134
100
AcDbEntity
8
0
100
AcDbLine
10
84.263791517499499
20
-25.871622558720016
30
0
11
83.755326593976605
21
-25.327020007296145
31
0
0
LINE
5
135
100
AcDbEntity
8
0
100
AcDbLine
10
85.19902921369183
20
-26.563720634678344
30
0
11
85.202865731480813
21
-26.325925340793642
31
0
0
LINE
5
136
100
AcDbEntity
8
0
100
AcDbLine
10
84.627393435451154
20
-19.202854036724592
30
0
11
85.296322930132817
21
-18.634876362163535
31
0
0
LINE
5
137
100
AcDbEntity
8
0
100
AcDbLine
10
82.730109528297135
20
-21.657865924762241
30
0
11
84.263791517499499
21
-25.871622558720016
31
0
0
SPLINE
5
138
100
AcDbEntity
8
0
100
AcDbSpline
70
0
71
3
72
26
73
22
74
0
42
0.000000001
43
0.0000000001
44
0.0000000001
40
0
40
0
40
0
40
0
40
0.028223163108423713
40
0.04234221832507469
40
0.056460077847955814
40
0.063522953556056985
40
0.070569267509828407
40
0.077635193545968664
40
0.084689158417635441
40
0.098806912924869095
40
0.11291646457170057
40
0.11997003305807759
40
0.12703689913217867
40
0.13408500233938853
40
0.14115420040337651
40
0.15526328994009678
40
0.16938508063021471
40
0.18349365537730911
40
0.19760302785688619
40
0.21172369154183726
40
0.22583854389570243
40
0.22583854389570243
40
0.22583854389570243
40
0.22583854389570243
10
72.844653772410993
20
-26.804698646122972
30
0
10
72.934607285740299
20
-26.777177369552817
30
0
10
73.069561375962721
20
-26.735888166898881
30
0
10
73.253798417063237
20
-26.695046540383835
30
0
10
73.371429574787541
20
-26.687706619943746
30
0
10
73.465005943629166
20
-26.677280541111834
30
0
10
73.535725637694057
20
-26.677926981099546
30
0
10
73.606117563908839
20
-26.681652692946535
30
0
10
73.700497147612069
20
-26.682915838092516
30
0
10
73.81537110097014
20
-26.710935501240943
30
0
10
73.929401300888586
20
-26.741740831765298
30
0
10
74.013214257838939
20
-26.785071560849964
30
0
10
74.075491386107075
20
-26.818142351265845
30
0
10
74.135645204158664
20
-26.855408224468857
30
0
10
74.209553169742335
20
-26.913749776821383
30
0
10
74.298575225453959
20
-26.991020394093269
30
0
10
74.389936350036763
20
-27.099569822496179
30
0
10
74.463144268697917
20
-27.220432011852939
30
0
10
74.534349195672178
20
-27.342342660364245
30
0
10
74.593442426745128
20
-27.470774035828001
30
0
10
74.627142033400844
20
-27.558655944674719
30
0
10
74.64398836876353
20
-27.602587855330857
30
0
0
SPLINE
5
139
100
AcDbEntity
8
0
100
AcDbSpline
70
0
71
3
72
18
73
14
74
0
42
0.000000001
43
0.0000000001
44
0.0000000001
40
0
40
0
40
0
40
0
40
0.022738526714736342
40
0.045462316297490271
40
0.068195860719402771
40
0.079564117707102699
40
0.090931703691646451
40
0.11365876706466052
40
0.13638457027539491
40
0.14776306608867301
40
0.15911704788046921
40
0.17048639295076215
40
0.18185323379362639
40
0.18185323379362639
40
0.18185323379362639
40
0.18185323379362639
10
83.23095406756542
20
-20.908142571027078
30
0
10
83.300548951206835
20
-20.877955180112863
30
0
10
83.439693613149458
20
-20.817599963121225
30
0
10
83.635420211764369
20
-20.700817679532161
30
0
10
83.789675885434349
20
-20.590895206022886
30
0
10
83.911547810336884
20
-20.500655448389807
30
0
10
84.027244333898295
20
-20.40285120516301
30
0
10
84.17004382112799
20
-20.277230476041701
30
0
10
84.284460459238204
20
-20.125417562695823
30
0
10
84.375146261844364
20
-20.003951985213906
30
0
10
84.431186017416891
20
-19.904674803106698
30
0
10
84.476719600995921
20
-19.800399880045259
30
0
10
84.501383771359798
20
-19.72871613144364
30
0
10
84.513714498251247
20
-19.692878204867622
30
0
0
LINE
5
140
100
AcDbEntity
8
0
100
AcDbLine
10
82.932520047660518
20
-27.388662506805282
30
0
11
82.266880824631698
21
-25.559833772030366
31
0
0
LINE
5
141
100
AcDbEntity
8
0
100
AcDbLine
10
84.195457454842341
20
-18.780547192961834
30
0
11
83.96870378656709
21
-18.946017341715109
31
0
0
LINE
5
142
100
AcDbEntity
8
0
100
AcDbLine
10
82.266690265393052
20
-25.099927222652134
30
0
11
84.617816878988648
21
-26.775264624298664
31
0
0
SPLINE
5
143
100
AcDbEntity
8
0
100
AcDbSpline
70
0
71
3
72
29
73
25
74
0
42
0.000000001
43
0.0000000001
44
0.0000000001
40
0
40
0
40
0
40
0
40
0.0098981089513412827
40
0.019799799449382406
40
0.029688364186671916
40
0.03958913704047648
40
0.059374614721218223
40
0.069265774578708528
40
0.07917406576174929
40
0.089049526871799248
40
0.098957200985377899
40
0.10884916981894083
40
0.11874851159265967
40
0.12863353444471493
40
0.13853760430574358
40
0.14842877964060597
40
0.15832513925021668
40
0.17810076887676196
40
0.19789222356799288
40
0.23741205443815788
40
0.25720320262851126
40
0.2769900660639073
40
0.2967795055724099
40
0.31657370788788236
40
0.31657370788788236
40
0.31657370788788236
40
0.31657370788788236
10
86.364755090523488
20
-21.882746569557391
30
0
10
86.333914667605924
20
-21.89447061101194
30
0
10
86.272222662425577
20
-21.917922936165915
30
0
10
86.179549329840199
20
-21.952637936634488
30
0
10
86.088866233802463
20
-21.992594272198236
30
0
10
85.97331484283896
20
-22.05634056882349
30
0
10
85.860557322134412
20
-22.125342457003203
30
0
10
85.75575038027182
20
-22.205628421339604
30
0
10
85.675465570595293
20
-22.263321192486714
30
0
10
85.598428139321783
20
-22.325943627577708
30
0
10
85.532302244439293
20
-22.399696294559281
30
0
10
85.461821204429569
20
-22.46943000099964
30
0
10
85.401626524270597
20
-22.547977908223537
30
0
10
85.334854943682501
20
-22.62176795335661
30
0
10
85.289822670126227
20
-22.710511811114671
30
0
10
85.237217107471935
20
-22.794330571288267
30
0
10
85.17883622022228
20
-22.912714855106358
30
0
10
85.114845647201633
20
-23.065302757407832
30
0
10
85.054484092927794
20
-23.322333078693582
30
0
10
85.019734148064785
20
-23.586211112421633
30
0
10
85.041787470438067
20
-23.849327577511726
30
0
10
85.059577520567558
20
-24.046691997794092
30
0
10
85.108034374191632
20
-24.239275474691112
30
0
10
85.150489141264501
20
-24.36418450129953
30
0
10
85.171719078935013
20
-24.426646529293592
30
0
0
LINE
5
144
100
AcDbEntity
8
0
100
AcDbLine
10
82.266880824631698
20
-25.559833772030366
30
0
11
81.880103017927297
21
-24.722916451961616
31
0
0
SPLINE
5
145
100
AcDbEntity
8
0
100
AcDbSpline
70
0
71
3
72
12
73
8
74
0
42
0.000000001
43
0.0000000001
44
0.0000000001
40
0
40
0
40
0
40
0
40
0.027027522971211092
40
0.054053970685379038
40
0.081083265290466222
40
0.094604696709976149
40
0.108120224495624
40
0.108120224495624
40
0.108120224495624
40
0.108120224495624
10
86.364755090523488
20
-21.882746569557391
30
0
10
86.449409408921909
20
-21.851915369328573
30
0
10
86.618714677849908
20
-21.790254195452654
30
0
10
86.881549076348605
20
-21.722866348889113
30
0
10
87.106233820504428
20
-21.70234941286752
30
0
10
87.284912147473506
20
-21.678526480741084
30
0
10
87.374912805933576
20
-21.673176384088674
30
0
10
87.419903309152261
20
-21.670501919870535
30
0
0
LINE
5
146
100
AcDbEntity
8
0
100
AcDbLine
10
80.839558134691814
20
-23.899779502405949
30
0
11
82.205693553068443
21
-27.653205716312836
31
0
0
SPLINE
5
147
100
AcDbEntity
8
0
100
AcDbSpline
70
0
71
3
72
28
73
24
74
0
42
0.000000001
43
0.0000000001
44
0.0000000001
40
0
40
0
40
0
40
0
40
0.018132935140380575
40
0.02716250998932964
40
0.036230047896070851
40
0.054344106169001399
40
0.063404532211706055
40
0.072477607163383306
40
0.090565720187643167
40
0.10865597721870358
40
0.12677253409478129
40
0.14488017861201249
40
0.1629769109454263
40
0.18108049715355651
40
0.19917864941028221
40
0.21729610202123656
40
0.23540956769096805
40
0.24446572805470485
40
0.25352087691831565
40
0.26258420808432609
40
0.27163390850112673
40
0.28069293532160106
40
0.28975016127932463
40
0.28975016127932463
40
0.28975016127932463
40
0.28975016127932463
10
85.983275934001568
20
-24.112986380512375
30
0
10
85.961366336573775
20
-24.056584515179409
30
0
10
85.928546517036182
20
-23.972096470708788
30
0
10
85.900485585867898
20
-23.85419351775608
30
0
10
85.890176904369824
20
-23.73383697673043
30
0
10
85.876196290790261
20
-23.61346875133188
30
0
10
85.881922926607572
20
-23.492639878234872
30
0
10
85.888398817925548
20
-23.371957623374946
30
0
10
85.922102770119722
20
-23.224136451910628
30
0
10
85.983310054263455
20
-23.052796307935349
30
0
10
86.079909974810931
20
-22.898915456795322
30
0
10
86.191882788464582
20
-22.754754066240913
30
0
10
86.340671178553166
20
-22.648899331963648
30
0
10
86.494613215220753
20
-22.554421102644486
30
0
10
86.658006324836236
20
-22.473868227217778
30
0
10
86.8345127888077
20
-22.430287393097174
30
0
10
86.982078470685849
20
-22.398949490926405
30
0
10
87.101740897158805
20
-22.381672193578122
30
0
10
87.192237724442066
20
-22.377003988220025
30
0
10
87.282579286832345
20
-22.36999487701549
30
0
10
87.373403942738008
20
-22.374922120505207
30
0
10
87.462327627096954
20
-22.392476290421577
30
0
10
87.521858765807465
20
-22.402563170171415
30
0
10
87.551621376288935
20
-22.407606108698555
30
0
0
LINE
5
148
100
AcDbEntity
8
0
100
AcDbLine
10
81.575584335192929
20
-23.631887873783498
30
0
11
80.839558134691814
21
-23.899779502405949
31
0
0
LINE
5
149
100
AcDbEntity
8
0
100
AcDbLine
10
81.880103017927297
20
-24.722916451961616
30
0
11
82.266690265393052
21
-25.099927222652134
31
0
0
LINE
5
150
100
AcDbEntity
8
0
100
AcDbLine
10
82.205693553068443
20
-27.653205716312836
30
0
11
82.932520047660518
21
-27.388662506805282
31
0
0
SPLINE
5
151
100
AcDbEntity
8
0
100
AcDbSpline
70
0
71
3
72
31
73
27
74
0
42
0.000000001
43
0.0000000001
44
0.0000000001
40
0
40
0
40
0
40
0
40
0.019013266363492733
40
0.038017921913471614
40
0.057025044884254958
40
0.076035236726678335
40
0.095037865295419618
40
0.10453913892327064
40
0.11406314490605349
40
0.12356176324894004
40
0.13306477765881997
40
0.14257148566718073
40
0.1520797148633635
40
0.16159529712641879
40
0.17108881978865906
40
0.18060390366297985
40
0.19010177307750761
40
0.19960799786357275
40
0.20911069519440265
40
0.21862025625072906
40
0.22812154988517588
40
0.23762862796177131
40
0.24714114755813443
40
0.2661413962399386
40
0.28513400344716378
40
0.30414585184377713
40
0.30414585184377713
40
0.30414585184377713
40
0.30414585184377713
10
88.378676083249772
20
-24.454947903056819
30
0
10
88.336484293336213
20
-24.502345737270204
30
0
10
88.252119821516459
20
-24.59711993995283
30
0
10
88.10528699942644
20
-24.718833131903676
30
0
10
87.948467308549994
20
-24.826444484937277
30
0
10
87.784700976855277
20
-24.923127137894706
30
0
10
87.641309791967004
20
-24.991580244611228
30
0
10
87.520908653442646
20
-25.031601297650141
30
0
10
87.429627738938336
20
-25.058055045315413
30
0
10
87.336309831775125
20
-25.078178789488366
30
0
10
87.241242789815885
20
-25.081853550518392
30
0
10
87.146179907155528
20
-25.089818989733715
30
0
10
87.051597663065053
20
-25.077370140989292
30
0
10
86.95664430116534
20
-25.069375385143815
30
0
10
86.865100931283166
20
-25.042488827453635
30
0
10
86.773484000251173
20
-25.017207906868588
30
0
10
86.686349464599317
20
-24.977947646961844
30
0
10
86.605948858478172
20
-24.927326582418452
30
0
10
86.523880983773608
20
-24.878800466404737
30
0
10
86.452420031100132
20
-24.815743148002735
30
0
10
86.380758030710894
20
-24.753153245214328
30
0
10
86.318578677000275
20
-24.681004185424896
30
0
10
86.232331740488561
20
-24.588193247036795
30
0
10
86.137596641807221
20
-24.46038479560778
30
0
10
86.049339042331781
20
-24.291308012712975
30
0
10
86.00530440151104
20
-24.172446983872554
30
0
10
85.983275934001568
20
-24.112986380512371
30
0
0
LINE
5
152
100
AcDbEntity
8
0
100
AcDbLine
10
68.303943368579908
20
-32.71302898767162
30
0
11
87.487273002620071
21
-25.730868006764041
31
0
0
ENDSEC
0
SECTION
2
OBJECTS
0
DICTIONARY
5
C
100
AcDbDictionary
3
ACAD_GROUP
350
D
3
ACAD_MLINESTYLE
350
17
0
DICTIONARY
5
D
100
AcDbDictionary
0
DICTIONARY
5
1A
330
C
100
AcDbDictionary
0
DICTIONARY
5
17
100
AcDbDictionary
0
ENDSEC
0
EOF
