<?xml version="1.0" encoding="UTF-8" standalone="no"?>
<!-- Created with Inkscape (http://www.inkscape.org/) -->

<svg
   width="24.044565mm"
   height="8.4931612mm"
   viewBox="0 0 24.044565 8.4931612"
   version="1.1"
   id="svg5"
   inkscape:version="1.1 (c68e22c387, 2021-05-23)"
   sodipodi:docname="Logo_LipSync.svg"
   xmlns:inkscape="http://www.inkscape.org/namespaces/inkscape"
   xmlns:sodipodi="http://sodipodi.sourceforge.net/DTD/sodipodi-0.dtd"
   xmlns="http://www.w3.org/2000/svg"
   xmlns:svg="http://www.w3.org/2000/svg">
  <sodipodi:namedview
     id="namedview7"
     pagecolor="#ffffff"
     bordercolor="#666666"
     borderopacity="1.0"
     inkscape:pageshadow="2"
     inkscape:pageopacity="0.0"
     inkscape:pagecheckerboard="0"
     inkscape:document-units="mm"
     showgrid="false"
     showguides="true"
     inkscape:guide-bbox="true"
     inkscape:snap-bbox="true"
     inkscape:snap-text-baseline="true"
     inkscape:zoom="3.6203867"
     inkscape:cx="53.171116"
     inkscape:cy="-45.989562"
     inkscape:window-width="1284"
     inkscape:window-height="1003"
     inkscape:window-x="1358"
     inkscape:window-y="0"
     inkscape:window-maximized="0"
     inkscape:current-layer="layer1"
     fit-margin-top="0"
     fit-margin-left="0"
     fit-margin-right="0"
     fit-margin-bottom="0">
    <sodipodi:guide
       position="629.08952,-247.74363"
       orientation="0,-1"
       id="guide9427" />
  </sodipodi:namedview>
  <defs
     id="defs2">
    <marker
       id="DistanceX"
       orient="auto"
       refX="0"
       refY="0"
       style="overflow:visible">
      <path
         d="M 3,-3 -3,3 M 0,-5 V 5"
         style="stroke:#000000;stroke-width:0.5"
         id="path826" />
    </marker>
    <pattern
       id="Hatch"
       patternUnits="userSpaceOnUse"
       width="8"
       height="8"
       x="0"
       y="0">
      <path
         d="M8 4 l-4,4"
         stroke="#000000"
         stroke-width="0.25"
         linecap="square"
         id="path829" />
      <path
         d="M6 2 l-4,4"
         stroke="#000000"
         stroke-width="0.25"
         linecap="square"
         id="path831" />
      <path
         d="M4 0 l-4,4"
         stroke="#000000"
         stroke-width="0.25"
         linecap="square"
         id="path833" />
    </pattern>
    <symbol
       id="*MODEL_SPACE" />
    <symbol
       id="*PAPER_SPACE" />
  </defs>
  <g
     inkscape:label="Layer 1"
     inkscape:groupmode="layer"
     id="layer1"
     transform="translate(-9.2999236,-18.745144)">
    <path
       d="m 13.501435,27.222222 -0.914852,-10e-7 v -4.420839 l 0.914852,1e-6 z"
       style="fill:none;stroke:#000000;stroke-width:0.0115155"
       id="path840" />
    <path
       d="m 17.824079,24.34259 c -0.0015,0.0642 -0.0029,0.128406 -0.0073,0.192572 -0.0044,0.06427 -0.01162,0.128494 -0.02516,0.19137 -0.01174,0.05454 -0.02821,0.108067 -0.04657,0.160827 -0.02072,0.05955 -0.04383,0.118138 -0.06915,0.175891 -0.01169,0.02667 -0.02385,0.05316 -0.03779,0.07866 -0.01342,0.02456 -0.0285,0.04821 -0.04399,0.0716 -0.01858,0.02806 -0.03776,0.05576 -0.05909,0.08166 -0.02223,0.02699 -0.04679,0.05202 -0.07044,0.07791 -0.02081,0.02279 -0.04091,0.04625 -0.06283,0.06783 -0.02599,0.0256 -0.05455,0.04856 -0.08302,0.07163 -0.02765,0.02239 -0.05521,0.04488 -0.08459,0.06466 -0.03356,0.02259 -0.06948,0.04165 -0.105303,0.06084 -0.05647,0.03025 -0.112696,0.0608 -0.171235,0.0862 -0.05636,0.02446 -0.114869,0.04413 -0.17381,0.06212 -0.05826,0.01779 -0.116947,0.03393 -0.176324,0.0469 -0.0497,0.01086 -0.09989,0.0195 -0.150116,0.02812 -0.0396,0.0068 -0.07924,0.01357 -0.119168,0.01738 -0.02713,0.0026 -0.0544,0.0038 -0.08167,0.005"
       style="fill:none;stroke:#000000;stroke-width:0.0115155"
       id="path842" />
    <path
       d="M 11.818922,27.222222 H 9.3056814 v -4.42084 h 0.9253816 l 10e-7,3.702395 h 1.587857 z"
       style="fill:none;stroke:#000000;stroke-width:0.0115155"
       id="path844" />
    <path
       style="fill:none;stroke:#000000;stroke-width:0.0115155"
       d="m 14.626652,22.801368 -2.5e-5,4.420809"
       id="path846" />
    <path
       style="fill:none;stroke:#000000;stroke-width:0.0115155"
       d="m 32.280611,19.022424 -0.04237,-0.146545"
       id="path848" />
    <path
       d="m 21.102056,23.052161 c -0.08081,-0.0361 -0.161611,-0.07219 -0.244206,-0.103941 -0.04129,-0.01587 -0.08304,-0.03065 -0.125372,-0.04348 -0.04237,-0.01283 -0.08533,-0.0237 -0.128461,-0.03369 -0.04312,-0.01 -0.08641,-0.01913 -0.129825,-0.02774 -0.04344,-0.0086 -0.08699,-0.01672 -0.130826,-0.023 -0.04376,-0.0063 -0.0878,-0.01075 -0.131928,-0.01335 -0.0442,-0.0026 -0.08849,-0.0033 -0.132769,-0.0037 -0.08862,-8.01e-4 -0.177222,-2.62e-4 -0.26578,0.0028 -0.08842,0.0031 -0.176784,0.0087 -0.264671,0.01922 -0.08792,0.01056 -0.175351,0.02608 -0.260933,0.0488 -0.08553,0.02271 -0.169199,0.0526 -0.249483,0.09019 -0.04019,0.01881 -0.07953,0.03955 -0.116349,0.06402 -0.03681,0.02446 -0.07109,0.05265 -0.106661,0.07904 -0.01779,0.0132 -0.0359,0.02595 -0.05304,0.03994 -0.01709,0.01394 -0.03322,0.02911 -0.04856,0.04499 -0.01542,0.01597 -0.03004,0.03267 -0.04454,0.04947 -0.01451,0.01681 -0.0289,0.03373 -0.04277,0.05109 -0.0138,0.01726 -0.02708,0.03497 -0.03906,0.05352 -0.01198,0.01855 -0.02266,0.03794 -0.03304,0.05746 -0.01043,0.01961 -0.02056,0.03935 -0.03082,0.05904 -0.01024,0.01966 -0.0206,0.03926 -0.02977,0.05944 -0.01827,0.04018 -0.03182,0.08262 -0.04129,0.125777 -0.0095,0.04334 -0.01487,0.0874 -0.01901,0.131563 -0.0083,0.08817 -0.01165,0.176733 -0.008,0.26527 0.0036,0.0885 0.01422,0.176974 0.03627,0.262792 0.01103,0.04293 0.02492,0.0852 0.04275,0.125636 0.01783,0.04043 0.03959,0.07903 0.06166,0.117498 0.02211,0.03852 0.04453,0.07691 0.07082,0.112463 0.02623,0.03548 0.05632,0.06815 0.08688,0.10023 0.0306,0.03211 0.06169,0.06363 0.09443,0.09336 0.03273,0.02972 0.06711,0.05764 0.101616,0.08542 0.0345,0.02777 0.06912,0.05539 0.105392,0.08067 0.03629,0.0253 0.07423,0.04825 0.110932,0.07301 0.01836,0.01238 0.03641,0.02521 0.05491,0.03737 0.01847,0.01214 0.0374,0.02359 0.0566,0.03455 0.01923,0.01097 0.03875,0.02144 0.05788,0.03256 0.01914,0.01112 0.03789,0.0229 0.05689,0.03429 0.01896,0.01137 0.03817,0.02236 0.05785,0.03241 0.0197,0.01005 0.03987,0.01916 0.05997,0.02841 0.04022,0.01852 0.08014,0.03764 0.119675,0.05754 0.03953,0.01989 0.07867,0.04055 0.118129,0.06058 0.03946,0.02003 0.07925,0.03942 0.118517,0.0598 0.03928,0.02038 0.07805,0.04175 0.116716,0.0633 0.03866,0.02155 0.07722,0.04329 0.114607,0.067 0.03738,0.0237 0.0736,0.04938 0.107672,0.07762 0.03409,0.02826 0.06602,0.0591 0.09567,0.09211 0.01483,0.01651 0.02909,0.03357 0.04133,0.05201 0.01223,0.01841 0.02245,0.0382 0.03094,0.05869 0.01697,0.04095 0.02702,0.08471 0.03119,0.128861 0.0021,0.02207 0.0027,0.04424 0.0014,0.06626 -0.0013,0.02205 -0.0046,0.04396 -0.0068,0.06602 -0.0023,0.02224 -0.0035,0.04464 -0.0085,0.06636 -0.0049,0.02126 -0.01349,0.04187 -0.02471,0.06064 -0.01151,0.01927 -0.02583,0.0366 -0.04047,0.05364 -0.01444,0.01681 -0.02921,0.03334 -0.04568,0.04803 -0.0329,0.02935 -0.07258,0.05132 -0.113968,0.06749 -0.04144,0.01619 -0.0846,0.02654 -0.1282,0.03396 -0.04365,0.0074 -0.08775,0.01189 -0.131911,0.01492 -0.08837,0.006 -0.177005,0.0063 -0.265583,0.0038 -0.08852,-0.0025 -0.17698,-0.0079 -0.264718,-0.0195 -0.04388,-0.0058 -0.08759,-0.01319 -0.130796,-0.02278 -0.0432,-0.0096 -0.08591,-0.0214 -0.128262,-0.03422 -0.04235,-0.01283 -0.08435,-0.02668 -0.126602,-0.03995 -0.04228,-0.01328 -0.08483,-0.02597 -0.125911,-0.04234 -0.04102,-0.01634 -0.08058,-0.03636 -0.120042,-0.05641 -0.0395,-0.02008 -0.0789,-0.0402 -0.11829,-0.06032"
       style="fill:none;stroke:#000000;stroke-width:0.0115155"
       id="path850" />
    <path
       style="fill:none;stroke:#000000;stroke-width:0.0115155"
       d="m 17.824041,24.342562 v -0.03198"
       id="path852" />
    <path
       style="fill:none;stroke:#000000;stroke-width:0.0115155"
       d="m 15.56251,25.88382 0.694115,-4.4e-5"
       id="path854" />
    <path
       d="m 22.849565,27.222221 v -1.57509 l -1.470035,-2.832342 0.999212,10e-7 0.941646,1.99704 0.941646,-1.997041 0.999213,10e-7 -1.470036,2.832341 1e-6,1.575091 z"
       style="fill:none;stroke:#000000;stroke-width:0.0115155"
       id="path856" />
    <path
       style="fill:none;stroke:#000000;stroke-width:0.0115155"
       d="m 18.59509,26.218617 -0.130128,0.752122"
       id="path858" />
    <path
       d="m 31.218773,18.832968 a 0.11052098,0.11052098 0 0 0 -0.136862,-0.07549"
       style="fill:none;stroke:#000000;stroke-width:0.0115155"
       id="path860" />
    <path
       style="fill:none;stroke:#000000;stroke-width:0.0115155"
       d="m 15.562602,25.139146 -6.1e-5,-1.632447"
       id="path862" />
    <path
       style="fill:none;stroke:#000000;stroke-width:0.0115155"
       d="m 16.256619,22.801387 -1.629967,-1.9e-5"
       id="path864" />
    <path
       d="m 18.464968,26.970714 c 0.08148,0.0352 0.162967,0.0704 0.246615,0.09966 0.08366,0.02926 0.169486,0.05259 0.256149,0.07182 0.173223,0.03843 0.349789,0.06047 0.526755,0.07263 0.08855,0.0061 0.177195,0.0097 0.265859,0.01049 0.08866,7.97e-4 0.177344,-0.0012 0.265967,-0.0072 0.08865,-0.006 0.177243,-0.01602 0.263818,-0.0351 0.08651,-0.01906 0.171008,-0.04718 0.254358,-0.07765 0.04171,-0.01525 0.08313,-0.03108 0.123627,-0.04926 0.04052,-0.01818 0.08011,-0.03871 0.117512,-0.0626 0.03737,-0.02386 0.07255,-0.05106 0.106927,-0.07911 0.03441,-0.02807 0.06801,-0.05698 0.100871,-0.08687 0.01642,-0.01494 0.03265,-0.03012 0.04753,-0.04654 0.01484,-0.01639 0.02833,-0.03402 0.04108,-0.05212 0.01282,-0.01819 0.02488,-0.03686 0.03718,-0.05538 0.01227,-0.01849 0.02477,-0.03684 0.0367,-0.05556 0.02381,-0.03735 0.04536,-0.07615 0.06437,-0.116264 0.01903,-0.04016 0.03551,-0.08163 0.04722,-0.124385 0.0117,-0.04272 0.01864,-0.08672 0.02385,-0.130793 0.0052,-0.0442 0.0087,-0.08847 0.01097,-0.132883 0.0045,-0.08857 0.0042,-0.177727 -0.0066,-0.265808 -0.0054,-0.04411 -0.01345,-0.08794 -0.02496,-0.130781 -0.0115,-0.04277 -0.02645,-0.08455 -0.04244,-0.125984 -0.016,-0.04148 -0.03304,-0.08261 -0.05415,-0.121571 -0.02109,-0.03892 -0.04624,-0.07566 -0.07318,-0.110996 -0.02695,-0.03535 -0.0557,-0.06928 -0.08706,-0.100557 -0.03137,-0.03128 -0.06537,-0.0599 -0.09785,-0.09012 -0.01625,-0.01512 -0.03213,-0.03064 -0.04892,-0.04515 -0.01673,-0.01446 -0.03436,-0.0279 -0.0525,-0.04059 -0.0182,-0.01274 -0.03691,-0.02471 -0.05524,-0.03723 -0.01834,-0.01251 -0.0363,-0.02556 -0.05431,-0.03856 -0.01797,-0.01297 -0.03599,-0.0259 -0.05458,-0.03793 -0.01859,-0.01203 -0.03776,-0.02316 -0.05706,-0.03405 -0.01934,-0.01091 -0.0388,-0.02157 -0.05785,-0.03294 -0.01904,-0.01136 -0.03767,-0.02344 -0.05623,-0.0356 -0.01855,-0.01215 -0.03704,-0.0244 -0.05601,-0.03586 -0.01895,-0.01146 -0.03838,-0.02214 -0.05799,-0.03246 -0.03928,-0.02068 -0.07927,-0.03991 -0.118815,-0.06004 -0.03951,-0.02011 -0.07858,-0.04111 -0.117868,-0.06166 -0.0393,-0.02055 -0.07882,-0.04065 -0.118338,-0.06079 -0.03951,-0.02015 -0.07902,-0.04034 -0.117978,-0.06149 -0.03896,-0.02115 -0.07737,-0.04326 -0.115757,-0.06555 -0.07674,-0.04457 -0.153345,-0.08988 -0.222898,-0.145069 -0.03474,-0.02756 -0.06771,-0.05759 -0.09685,-0.09089 -0.01463,-0.01672 -0.02829,-0.03426 -0.0414,-0.05226 -0.0131,-0.01798 -0.02566,-0.03642 -0.03614,-0.05595 -0.0209,-0.03893 -0.03357,-0.0822 -0.04138,-0.126172 -0.0078,-0.04387 -0.01075,-0.08844 -0.0065,-0.132327 0.0021,-0.02214 0.0061,-0.04412 0.01088,-0.06596 0.0048,-0.02191 0.01033,-0.0437 0.01912,-0.06427 0.0086,-0.02019 0.02034,-0.0392 0.03422,-0.0562 0.01416,-0.01733 0.03057,-0.03258 0.04736,-0.04753 0.03323,-0.02959 0.06794,-0.05804 0.106803,-0.07887 0.03894,-0.02087 0.08205,-0.03409 0.125483,-0.0441 0.04345,-0.01002 0.08724,-0.01685 0.131311,-0.02152 0.04405,-0.0047 0.08839,-0.0072 0.132719,-0.0086 0.04435,-0.0014 0.08868,-0.0016 0.133063,-0.0013 0.04438,3.49e-4 0.08883,0.0013 0.132949,0.0055 0.04408,0.0042 0.08783,0.01155 0.131416,0.01999 0.04365,0.0085 0.08712,0.01796 0.129414,0.03121 0.04225,0.01324 0.08333,0.03021 0.124432,0.04689 0.04113,0.01669 0.08228,0.03308 0.123113,0.05049 0.04078,0.01739 0.08125,0.03581 0.119797,0.05755 0.03859,0.02176 0.07526,0.04686 0.111927,0.07195"
       style="fill:none;stroke:#000000;stroke-width:0.0115155"
       id="path866" />
    <path
       style="fill:none;stroke:#000000;stroke-width:0.0115155"
       d="m 16.905596,24.29736 -1.5e-5,0.05122"
       id="path868" />
    <path
       style="fill:none;stroke:#000000;stroke-width:0.0115155"
       d="m 15.562588,27.222286 -7.9e-5,-1.338466"
       id="path870" />
    <path
       style="fill:none;stroke:#000000;stroke-width:0.0115155"
       d="m 32.238241,18.875879 -0.949262,0.200068"
       id="path872" />
    <path
       d="m 15.562573,23.506705 c 0.01728,-0.0088 0.03457,-0.01761 0.05271,-0.02411 0.01818,-0.0065 0.03722,-0.01069 0.05633,-0.01411 0.03823,-0.0069 0.07678,-0.01068 0.115426,-0.01286 0.03861,-0.0022 0.07732,-0.0027 0.116005,-0.0028 0.0387,-8.8e-5 0.07738,2.17e-4 0.116077,0.0013 0.03868,10e-4 0.07739,0.0028 0.115829,0.0068 0.03842,0.0041 0.07658,0.01045 0.114691,0.01714 0.03816,0.0067 0.07627,0.01371 0.113756,0.02332 0.03742,0.0096 0.07423,0.02177 0.109998,0.03659 0.0358,0.01483 0.07056,0.03229 0.10296,0.05345 0.03234,0.02113 0.06232,0.04595 0.08986,0.07307 0.02759,0.02717 0.05272,0.05666 0.07673,0.08706 0.01199,0.01518 0.0237,0.0306 0.03423,0.04677 0.01055,0.0162 0.01991,0.03317 0.02917,0.05019 0.0093,0.01703 0.01843,0.03411 0.02599,0.0519 0.0075,0.01776 0.01348,0.03623 0.01904,0.05476 0.01113,0.0371 0.02077,0.07448 0.02977,0.112166 0.009,0.03769 0.01737,0.07569 0.02134,0.114099 0.004,0.03838 0.0035,0.07716 0.0031,0.115943"
       style="fill:none;stroke:#000000;stroke-width:0.0115155"
       id="path874" />
    <path
       style="fill:none;stroke:#000000;stroke-width:0.0115155"
       d="m 20.94546,23.780435 0.156615,-0.728267"
       id="path876" />
    <path
       style="fill:none;stroke:#000000;stroke-width:0.0115155"
       d="m 29.275575,26.976681 -4.4e-5,-6.373719"
       id="path878" />
    <path
       style="fill:none;stroke:#000000;stroke-width:0.0115155"
       d="m 31.067592,19.825612 0.298048,-0.08624"
       id="path880" />
    <path
       d="m 27.946073,20.195717 c -0.0054,-0.01748 -0.01075,-0.03496 -0.01402,-0.05285 -0.0033,-0.0179 -0.0044,-0.03621 -0.0047,-0.0545 -5.97e-4,-0.03658 0.0023,-0.07308 0.0092,-0.109029 0.0069,-0.03587 0.01788,-0.0712 0.03413,-0.103691 0.01631,-0.03261 0.03796,-0.06238 0.05922,-0.09218 0.01061,-0.01486 0.02112,-0.02974 0.03255,-0.04389 0.01144,-0.01415 0.0238,-0.02757 0.03596,-0.04117 0.02435,-0.02724 0.04789,-0.05519 0.0734,-0.08122 0.02548,-0.02599 0.05294,-0.05007 0.08046,-0.07403 0.02753,-0.02397 0.05513,-0.04784 0.08383,-0.0703 0.0287,-0.02246 0.05851,-0.04351 0.08805,-0.0649 0.02956,-0.02141 0.05884,-0.04316 0.0887,-0.06412 0.02982,-0.02094 0.06021,-0.04111 0.09126,-0.06019 0.03108,-0.0191 0.06282,-0.03712 0.09459,-0.05506 0.06351,-0.03586 0.127148,-0.0714 0.191129,-0.106432 0.064,-0.03505 0.128342,-0.06958 0.194484,-0.100321 0.0661,-0.03072 0.134003,-0.05765 0.202751,-0.08198 0.06877,-0.02434 0.138392,-0.04608 0.208337,-0.06678 0.06994,-0.02069 0.140212,-0.04034 0.211137,-0.05728 0.07093,-0.01694 0.142519,-0.03118 0.214524,-0.04298 0.03601,-0.0059 0.07212,-0.01119 0.108404,-0.01478 0.03628,-0.0036 0.07274,-0.0055 0.1092,-0.0064 0.03647,-9.21e-4 0.07294,-8.75e-4 0.109399,-4e-4 0.03646,4.72e-4 0.07291,0.0014 0.109396,0.0026 0.03649,0.0013 0.07303,0.0029 0.10918,0.0075 0.03612,0.0046 0.07185,0.01228 0.107427,0.02042 0.03559,0.0081 0.07103,0.01678 0.10596,0.02717 0.03493,0.01039 0.06935,0.02254 0.103764,0.03468"
       style="fill:none;stroke:#000000;stroke-width:0.0115155"
       id="path882" />
    <path
       d="m 27.946073,20.195717 c 0.0092,0.02897 0.01832,0.05795 0.03195,0.08467 0.01369,0.02684 0.03189,0.05141 0.05112,0.07515 0.01923,0.02374 0.03949,0.04665 0.06294,0.06555 0.02334,0.01881 0.04985,0.03364 0.07636,0.04848"
       style="fill:none;stroke:#000000;stroke-width:0.0115155"
       id="path884" />
    <path
       style="fill:none;stroke:#000000;stroke-width:0.0115155"
       d="m 28.49785,27.222273 0.683804,-5e-6"
       id="path886" />
    <path
       style="fill:none;stroke:#000000;stroke-width:0.0115155"
       d="M 31.44118,19.60253 31.37096,19.359453"
       id="path888" />
    <path
       d="m 31.36569,19.739398 a 0.11052098,0.11052098 0 0 0 0.07549,-0.136861"
       style="fill:none;stroke:#000000;stroke-width:0.0115155"
       id="path890" />
    <path
       d="m 15.562572,25.139175 c 0.01728,0.0088 0.03457,0.01762 0.05271,0.02411 0.01818,0.0065 0.03722,0.01069 0.05633,0.01411 0.03823,0.0069 0.07678,0.01068 0.115425,0.01286 0.03861,0.0022 0.07732,0.0027 0.116004,0.0028 0.0387,8.7e-5 0.07738,-2.18e-4 0.116078,-0.0013 0.03868,-0.001 0.07739,-0.0028 0.115829,-0.0068 0.03842,-0.0041 0.07658,-0.01045 0.114691,-0.01714 0.03816,-0.0067 0.07627,-0.01371 0.113756,-0.02332 0.03742,-0.0096 0.07423,-0.02177 0.109998,-0.03659 0.0358,-0.01482 0.07056,-0.03228 0.10296,-0.05345 0.03234,-0.02113 0.06232,-0.04595 0.08986,-0.07307 0.02759,-0.02717 0.05272,-0.05666 0.07673,-0.08706 0.01199,-0.01518 0.0237,-0.0306 0.03423,-0.04677 0.01055,-0.0162 0.01991,-0.03317 0.02917,-0.05019 0.0093,-0.01703 0.01843,-0.03411 0.02598,-0.0519 0.0075,-0.01776 0.01348,-0.03623 0.01904,-0.05476 0.01113,-0.0371 0.02077,-0.07448 0.02977,-0.112165 0.009,-0.03769 0.01737,-0.07569 0.02134,-0.1141 0.004,-0.03838 0.0035,-0.07716 0.0031,-0.115943"
       style="fill:none;stroke:#000000;stroke-width:0.0115155"
       id="path892" />
    <path
       style="fill:none;stroke:#000000;stroke-width:0.0115155"
       d="m 33.197013,23.794308 0.141804,-0.815517"
       id="path894" />
    <path
       style="fill:none;stroke:#000000;stroke-width:0.0115155"
       d="m 33.28198,26.985675 3.5e-5,-0.751925"
       id="path896" />
    <path
       style="fill:none;stroke:#000000;stroke-width:0.0115155"
       d="m 14.626627,27.222177 0.935961,1.31e-4"
       id="path898" />
    <path
       style="fill:none;stroke:#000000;stroke-width:0.0115155"
       d="m 31.288979,19.075947 -0.07026,-0.242969"
       id="path900" />
    <path
       style="fill:none;stroke:#000000;stroke-width:0.0115155"
       d="M 28.149483,25.39161 26.526102,22.806569"
       id="path902" />
    <path
       d="m 33.282028,26.985688 c -0.04304,0.02365 -0.08609,0.04731 -0.131247,0.06616 -0.02262,0.0094 -0.04577,0.01768 -0.06884,0.02609 -0.02308,0.0084 -0.04608,0.01698 -0.06931,0.02487 -0.04638,0.01575 -0.0937,0.02877 -0.141184,0.04093 -0.04754,0.01217 -0.09524,0.02349 -0.143219,0.03376 -0.04796,0.01026 -0.09619,0.01947 -0.144731,0.02637 -0.04853,0.0069 -0.09736,0.01146 -0.146267,0.01551 -0.09781,0.0081 -0.195891,0.01418 -0.293899,0.01303 -0.04902,-5.75e-4 -0.09802,-0.003 -0.147057,-0.0047 -0.04905,-0.0018 -0.09814,-0.003 -0.146964,-0.0074 -0.04881,-0.0043 -0.09736,-0.01181 -0.145648,-0.0205 -0.0483,-0.0087 -0.09635,-0.01858 -0.143956,-0.03035 -0.04759,-0.01176 -0.09474,-0.02539 -0.141513,-0.0401 -0.0468,-0.01473 -0.09323,-0.03055 -0.139973,-0.04553 -0.02337,-0.0075 -0.04682,-0.01477 -0.06974,-0.02348 -0.02286,-0.0087 -0.0452,-0.01879 -0.0671,-0.02972 -0.02198,-0.01097 -0.04352,-0.02277 -0.06531,-0.03409 -0.02178,-0.01131 -0.04382,-0.02213 -0.0656,-0.03348 -0.02172,-0.01131 -0.04318,-0.02315 -0.06409,-0.03587 -0.02095,-0.01275 -0.04136,-0.0264 -0.06234,-0.03909 -0.02102,-0.01271 -0.04262,-0.02446 -0.06346,-0.03749 -0.02073,-0.01296 -0.04072,-0.02718 -0.05959,-0.04271 -0.01896,-0.01561 -0.0368,-0.03254 -0.05521,-0.04879 -0.01838,-0.01623 -0.03735,-0.03178 -0.0559,-0.04782 -0.03707,-0.03206 -0.07246,-0.06604 -0.10704,-0.100844 -0.03459,-0.03481 -0.06837,-0.07044 -0.09976,-0.108091 -0.03139,-0.03767 -0.06039,-0.07737 -0.08787,-0.118031 -0.02748,-0.04065 -0.05345,-0.08226 -0.07844,-0.124468 -0.025,-0.04222 -0.04902,-0.08504 -0.07121,-0.128767 -0.02219,-0.04372 -0.04256,-0.08835 -0.06196,-0.133419 -0.0194,-0.04506 -0.03784,-0.09057 -0.05338,-0.13704 -0.01556,-0.04649 -0.02822,-0.09395 -0.04052,-0.141451 -0.01231,-0.0475 -0.02426,-0.09504 -0.03541,-0.142802 -0.01115,-0.04775 -0.02151,-0.09573 -0.02934,-0.144134 -0.0078,-0.04843 -0.01315,-0.09728 -0.01668,-0.146217 -0.0071,-0.09783 -0.007,-0.195989 -0.007,-0.294143"
       style="fill:none;stroke:#000000;stroke-width:0.0115155"
       id="path904" />
    <path
       d="m 28.471772,21.19244 c -0.0017,-0.01669 -0.0033,-0.03338 -0.007,-0.04966 -0.0036,-0.01623 -0.0093,-0.03206 -0.01559,-0.04753 -0.0064,-0.01563 -0.01346,-0.0309 -0.02043,-0.04622 -0.0069,-0.01528 -0.01378,-0.03061 -0.02084,-0.04586 -0.01403,-0.03029 -0.02894,-0.06023 -0.04597,-0.08889 -0.01708,-0.02875 -0.0363,-0.05622 -0.05567,-0.08354 -0.01936,-0.02731 -0.03887,-0.05446 -0.05863,-0.08143 -0.0099,-0.01347 -0.0198,-0.0269 -0.02991,-0.04022 -0.01015,-0.01337 -0.02049,-0.02663 -0.02921,-0.04098 -0.0086,-0.01417 -0.01566,-0.0294 -0.02046,-0.04529 -0.0049,-0.01621 -0.0075,-0.03311 -0.0084,-0.04999 -0.0018,-0.0345 0.0035,-0.06889 0.0087,-0.103266"
       style="fill:none;stroke:#000000;stroke-width:0.0115155"
       id="path906" />
    <path
       style="fill:none;stroke:#000000;stroke-width:0.0115155"
       d="M 28.471711,26.14968 28.149483,25.39161"
       id="path908" />
    <path
       style="fill:none;stroke:#000000;stroke-width:0.0115155"
       d="m 29.181654,27.222268 0.09392,-0.245587"
       id="path910" />
    <path
       style="fill:none;stroke:#000000;stroke-width:0.0115155"
       d="m 31.370957,19.359453 0.909654,-0.337029"
       id="path912" />
    <path
       style="fill:none;stroke:#000000;stroke-width:0.0115155"
       d="m 28.471786,21.192386 -8.7e-5,4.957294"
       id="path914" />
    <path
       d="m 16.256581,22.801383 c 0.103851,0.0054 0.207701,0.01084 0.311246,0.02172 0.0518,0.0054 0.103522,0.01225 0.154375,0.02303 0.05085,0.01077 0.100832,0.02551 0.151219,0.03861 0.02521,0.0066 0.05052,0.0127 0.07538,0.02034 0.02481,0.0076 0.04917,0.01675 0.07329,0.02638 0.02419,0.0097 0.04813,0.01984 0.07231,0.02956 0.02414,0.0097 0.04851,0.01894 0.072,0.02994 0.04703,0.022 0.09054,0.05103 0.133663,0.08057 0.0431,0.02953 0.08582,0.05957 0.123605,0.09514 0.01889,0.01778 0.03655,0.03695 0.05408,0.05618 0.01756,0.01927 0.03498,0.0386 0.05177,0.05851 0.01674,0.01986 0.03284,0.04031 0.04772,0.06159 0.01493,0.02134 0.02863,0.04352 0.04199,0.06591 0.02666,0.04469 0.05195,0.09023 0.07357,0.137536 0.02164,0.04735 0.0396,0.09649 0.05365,0.146607 0.01403,0.05007 0.02414,0.101135 0.03384,0.152252 0.0097,0.05112 0.01899,0.102296 0.02577,0.153833 0.0068,0.05158 0.01106,0.103519 0.01365,0.155505 0.0026,0.05196 0.0035,0.103969 0.0044,0.155976"
       style="fill:none;stroke:#000000;stroke-width:0.0115155"
       id="path916" />
    <path
       d="m 29.275528,20.602984 c 0.08371,-0.005 0.16742,-0.01009 0.250533,-0.0205 0.08306,-0.0104 0.165524,-0.02617 0.247105,-0.04522 0.08162,-0.01906 0.16235,-0.04141 0.242832,-0.06475 0.04025,-0.01167 0.08043,-0.02359 0.120173,-0.03678 0.03974,-0.01319 0.07904,-0.02766 0.118297,-0.0424 0.07849,-0.02948 0.156822,-0.06008 0.23123,-0.09827 0.07441,-0.03818 0.144887,-0.08395 0.215086,-0.129827 0.03515,-0.02297 0.07022,-0.04597 0.103734,-0.07115 0.03344,-0.02512 0.06532,-0.0524 0.0957,-0.08121 0.03043,-0.02885 0.05935,-0.05924 0.08699,-0.09071 0.02764,-0.03147 0.054,-0.06404 0.08036,-0.09661"
       style="fill:none;stroke:#000000;stroke-width:0.0115155"
       id="path918" />
    <path
       style="fill:none;stroke:#000000;stroke-width:0.0115155"
       d="m 26.515218,27.2222 2.5e-5,-2.151517"
       id="path920" />
    <path
       style="fill:none;stroke:#000000;stroke-width:0.0115155"
       d="m 31.081877,18.757439 -0.298048,0.08624"
       id="path922" />
    <path
       style="fill:none;stroke:#000000;stroke-width:0.0115155"
       d="m 26.688912,24.592857 1.808938,2.629416"
       id="path924" />
    <path
       d="m 32.162478,22.800305 c -0.03647,5.18e-4 -0.07294,10e-4 -0.109413,0.0015 -0.03648,4.35e-4 -0.07297,7.7e-4 -0.109441,0.0021 -0.03642,0.0014 -0.07283,0.0038 -0.109038,0.0078 -0.03626,0.004 -0.07232,0.0097 -0.108299,0.01584 -0.07191,0.01235 -0.143509,0.02687 -0.21377,0.0463 -0.03513,0.0097 -0.06991,0.02065 -0.104844,0.03105 -0.03499,0.01042 -0.07012,0.02029 -0.10499,0.03123 -0.03475,0.0109 -0.06925,0.02285 -0.102564,0.0374 -0.03343,0.01461 -0.06567,0.03184 -0.09841,0.04809 -0.03268,0.01623 -0.06585,0.03148 -0.09781,0.04891 -0.03198,0.01745 -0.06275,0.03707 -0.09435,0.05546 -0.03155,0.01836 -0.06394,0.03547 -0.09351,0.05654 -0.02963,0.02111 -0.05644,0.04619 -0.08424,0.06994 -0.02777,0.02371 -0.05653,0.04609 -0.08409,0.0699 -0.02757,0.02382 -0.05394,0.04906 -0.0798,0.07484 -0.05167,0.05153 -0.101315,0.105227 -0.146128,0.162604 -0.04485,0.05742 -0.08486,0.118531 -0.122865,0.181036 -0.07589,0.124812 -0.143769,0.2552 -0.191912,0.392479 -0.02411,0.06875 -0.04327,0.139225 -0.06221,0.209758 -0.01893,0.07052 -0.03765,0.141095 -0.05075,0.212774 -0.0131,0.07169 -0.0206,0.144478 -0.02512,0.217321 -0.0045,0.07286 -0.0061,0.145775 -0.0077,0.218689"
       style="fill:none;stroke:#000000;stroke-width:0.0115155"
       id="path926" />
    <path
       style="fill:none;stroke:#000000;stroke-width:0.0115155"
       d="m 26.515243,25.070683 -0.08536,-1.015598"
       id="path928" />
    <path
       d="m 32.162478,22.800305 c 0.0996,-2e-5 0.199195,-4.1e-5 0.298745,0.0048 0.09955,0.0049 0.199048,0.01468 0.297024,0.0323 0.09799,0.01762 0.194446,0.04308 0.291463,0.06583 0.04853,0.01138 0.09721,0.02209 0.145427,0.03456 0.0482,0.01247 0.09595,0.0267 0.143696,0.04093"
       style="fill:none;stroke:#000000;stroke-width:0.0115155"
       id="path930" />
    <path
       style="fill:none;stroke:#000000;stroke-width:0.0115155"
       d="m 25.660191,22.806589 6e-6,4.415674"
       id="path932" />
    <path
       d="m 30.92294,24.972879 c -0.0014,-0.06687 -0.0029,-0.13375 0.0018,-0.200449 0.0023,-0.03321 0.0062,-0.06638 0.01243,-0.09904 0.0063,-0.0328 0.01499,-0.06508 0.02339,-0.09747 0.01677,-0.06471 0.03225,-0.129847 0.05462,-0.192656 0.01119,-0.03141 0.02409,-0.06225 0.03709,-0.09304 0.01302,-0.03083 0.02614,-0.06162 0.04096,-0.09156 0.02955,-0.05968 0.06589,-0.115967 0.105437,-0.169905 0.03956,-0.05394 0.08233,-0.105538 0.130107,-0.151876 0.04785,-0.04641 0.10073,-0.08754 0.155655,-0.126023 0.0549,-0.03846 0.111842,-0.07427 0.172756,-0.101126 0.06088,-0.02684 0.125719,-0.04473 0.190741,-0.06034 0.06505,-0.01561 0.130275,-0.02893 0.196249,-0.03923 0.06595,-0.01031 0.132655,-0.0176 0.19929,-0.01768 0.06671,-8.7e-5 0.133346,0.0071 0.1997,0.01531 0.06634,0.0082 0.132391,0.01752 0.198025,0.02972 0.03281,0.0061 0.06552,0.01292 0.09784,0.02123 0.03231,0.0083 0.06422,0.01809 0.09626,0.02746 0.03207,0.0094 0.06426,0.01835 0.09578,0.02941 0.03147,0.01105 0.06228,0.02419 0.09196,0.0394 0.02971,0.01522 0.0583,0.03252 0.08711,0.04941 0.0288,0.01689 0.05781,0.03338 0.08682,0.04988"
       style="fill:none;stroke:#000000;stroke-width:0.0115155"
       id="path934" />
    <path
       style="fill:none;stroke:#000000;stroke-width:0.0115155"
       d="m 26.526102,22.806569 -0.865911,2e-5"
       id="path936" />
    <path
       style="fill:none;stroke:#000000;stroke-width:0.0115155"
       d="m 26.429879,24.055085 0.259033,0.537772"
       id="path938" />
    <path
       style="fill:none;stroke:#000000;stroke-width:0.0115155"
       d="m 25.660197,27.222263 0.855021,-4.4e-5"
       id="path940" />
    <path
       d="m 33.282028,26.233812 c -0.06175,0.03328 -0.123501,0.06657 -0.187477,0.09503 -0.06395,0.02845 -0.130119,0.05209 -0.197132,0.07265 -0.06702,0.02057 -0.134887,0.03807 -0.203267,0.05324 -0.06839,0.01517 -0.137295,0.02801 -0.206724,0.03781 -0.0694,0.0098 -0.139327,0.01655 -0.209343,0.01749 -0.03501,4.7e-4 -0.07004,-5.18e-4 -0.105013,-0.0022 -0.03506,-0.0017 -0.07006,-0.004 -0.105011,-0.0076 -0.03486,-0.0036 -0.06967,-0.0084 -0.103764,-0.0161 -0.03411,-0.0077 -0.06749,-0.01846 -0.101137,-0.02842 -0.03366,-0.01 -0.06759,-0.01919 -0.100132,-0.03192 -0.03255,-0.01273 -0.06373,-0.02895 -0.09526,-0.04444 -0.03155,-0.0155 -0.06346,-0.03025 -0.09357,-0.04806 -0.03005,-0.01777 -0.05831,-0.03859 -0.0867,-0.05914 -0.02845,-0.0206 -0.05703,-0.04092 -0.08394,-0.06339 -0.02686,-0.02243 -0.05206,-0.04698 -0.07539,-0.07308 -0.02335,-0.02612 -0.04482,-0.0538 -0.0667,-0.08121 -0.02188,-0.0274 -0.04417,-0.05454 -0.06372,-0.08352 -0.01956,-0.02901 -0.03637,-0.05986 -0.05324,-0.09065 -0.01685,-0.03076 -0.03377,-0.06145 -0.04845,-0.0932 -0.01468,-0.03176 -0.02712,-0.06458 -0.04015,-0.09713 -0.01304,-0.03256 -0.02668,-0.06484 -0.03911,-0.09762 -0.02483,-0.06546 -0.04487,-0.132892 -0.05951,-0.20144 -0.01464,-0.06852 -0.02388,-0.138156 -0.02871,-0.207988 -0.0048,-0.0699 -0.0052,-0.14 -0.0056,-0.210097"
       style="fill:none;stroke:#000000;stroke-width:0.0115155"
       id="path942" />
  </g>
</svg>
