<?xml version="1.0" encoding="UTF-8"?>
<svg width="1200pt" height="1200pt" version="1.1" viewBox="0 0 1200 1200" xmlns="http://www.w3.org/2000/svg">
 <path d="m865.5 431.25h-531c-44.754 0-87.676 17.777-119.32 49.426-31.648 31.648-49.426 74.57-49.426 119.32s17.777 87.676 49.426 119.32c31.648 31.648 74.57 49.426 119.32 49.426h531c44.754 0 87.676-17.777 119.32-49.426 31.648-31.648 49.426-74.57 49.426-119.32s-17.777-87.676-49.426-119.32c-31.648-31.648-74.57-49.426-119.32-49.426zm0 187.5h-531c-6.6992 0-12.887-3.5742-16.238-9.375-3.3477-5.8008-3.3477-12.949 0-18.75 3.3516-5.8008 9.5391-9.375 16.238-9.375h531c6.6992 0 12.887 3.5742 16.238 9.375 3.3477 5.8008 3.3477 12.949 0 18.75-3.3516 5.8008-9.5391 9.375-16.238 9.375z" fill="#fff"/>
</svg>
