<?xml version="1.0" encoding="UTF-8"?>
<svg width="1200pt" height="1200pt" version="1.1" viewBox="0 0 1200 1200" xmlns="http://www.w3.org/2000/svg">
 <path d="m756.38 125.44h-312.75c-31.898 1.3633-61.961 15.309-83.605 38.781s-33.113 54.562-31.895 86.469v698.62c-1.2188 31.906 10.25 62.996 31.895 86.469s51.707 37.418 83.605 38.781h312.75c31.898-1.3633 61.961-15.309 83.605-38.781s33.113-54.562 31.895-86.469v-698.62c1.2188-31.906-10.25-62.996-31.895-86.469s-51.707-37.418-83.605-38.781zm-226.31 56.25c2.3281-2.4961 5.5859-3.9219 9-3.9375h121.88c3.4297 0.050781 6.7031 1.4609 9.0938 3.9219s3.707 5.7734 3.6562 9.2031c0.070312 3.5039-1.2812 6.8867-3.75 9.375-2.3477 2.4492-5.6094 3.8086-9 3.75h-121.88c-5.3008-0.074219-10.035-3.3281-12.004-8.25-1.9648-4.918-0.78125-10.543 3.0039-14.25zm279.56 794.44h-419.25c-6.8125 0-13.348-2.707-18.164-7.5234-4.8164-4.8164-7.5234-11.352-7.5234-18.164v-700.69c0-6.8125 2.707-13.348 7.5234-18.164 4.8164-4.8164 11.352-7.5234 18.164-7.5234h419.25c6.8125 0 13.348 2.707 18.164 7.5234 4.8164 4.8164 7.5234 11.352 7.5234 18.164v700.5c0.050781 6.8438-2.6328 13.426-7.457 18.285s-11.387 7.5898-18.23 7.5898z"/>
</svg>
