<?xml version="1.0" encoding="UTF-8"?>
<svg width="1200pt" height="1200pt" version="1.1" viewBox="0 0 1200 1200" xmlns="http://www.w3.org/2000/svg">
 <g>
  <path d="m1135.4 738.57v-570.36c0-50.102-40.648-90.75-90.75-90.75h-889.23c-50.16 0-90.75 40.648-90.75 90.75v570.36z"/>
  <path d="m64.621 798.57v37.262c0 50.16 40.621 90.809 90.75 90.809h322.14c-12.961 33.691-37.559 89.699-72.602 135.87h-97.262c-16.59 0-30 13.41-30 30 0 16.59 13.41 30 30 30h584.64c16.59 0 30-13.41 30-30 0-16.59-13.41-30-30-30h-97.262c-35.039-46.172-59.641-102.18-72.602-135.87h322.18c50.102 0 90.75-40.648 90.75-90.809v-37.262z"/>
 </g>
</svg>
