<?xml version="1.0" encoding="UTF-8"?>
<svg width="1200pt" height="1200pt" version="1.1" viewBox="0 0 1200 1200" xmlns="http://www.w3.org/2000/svg">
 <path d="m288 96.102c0-46.449 37.629-84.102 83.992-84.102h456.02c46.387 0 83.992 37.629 83.992 84.102v1007.8c0 46.449-37.629 84.102-83.992 84.102h-456.02c-46.387 0-83.992-37.629-83.992-84.102zm36-0.13281v1008.1c0 26.41 21.5 47.969 48.02 47.969h455.96c26.551 0 48.02-21.477 48.02-47.969v-1008.1c0-26.41-21.469-47.969-47.949-47.969h-84.02c-6.5625 0-14.801 4.6172-18.219 10.312l-23.625 39.375c-3.3633 5.6055-11.566 10.312-18.199 10.312h-167.98c-6.6758 0-14.781-4.6172-18.199-10.312l-23.625-39.375c-3.3633-5.6055-11.574-10.312-18.219-10.312h-84.02c-26.391 0-47.949 21.477-47.949 47.969z" fill-rule="evenodd"/>
</svg>
