<?xml version="1.0" encoding="UTF-8"?>
<svg width="1200pt" height="1200pt" version="1.1" viewBox="0 0 1200 1200" xmlns="http://www.w3.org/2000/svg">
 <path d="m253.45 60h693.05c33.801 0 61.398 27.648 61.398 61.398v957.2c0 33.801-27.602 61.398-61.398 61.398l-693.05 0.003906c-33.75 0-61.398-27.602-61.398-61.398v-957.2c0-33.75 27.699-61.398 61.398-61.398zm3.25 54.148v880.5h686.6v-880.5zm343.3 910.35c-23.648 0-42.801 19.148-42.801 42.801 0 23.648 19.148 42.75 42.801 42.75 23.648 0 42.801-19.148 42.801-42.75 0-23.652-19.152-42.801-42.801-42.801z" fill-rule="evenodd"/>
</svg>
